<svg xmlns="http://www.w3.org/2000/svg" version="1.1" xmlns:xlink="http://www.w3.org/1999/xlink" xmlns:svgjs="http://svgjs.com/svgjs" width="1440" height="560" preserveAspectRatio="none" viewBox="0 0 1440 560"><g mask="url(&quot;#SvgjsMask1646&quot;)" fill="none"><rect width="1440" height="560" x="0" y="0" fill="url(#SvgjsRadialGradient1647)"></rect><path d="M 0,487 C 57.6,429.8 172.8,217.8 288,201 C 403.2,184.2 460.8,387.6 576,403 C 691.2,418.4 748.8,258.6 864,278 C 979.2,297.4 1036.8,543.8 1152,500 C 1267.2,456.2 1382.4,147.2 1440,59L1440 560L0 560z" fill="rgba(248, 158, 0, 1)"></path><path d="M 0,14 C 72,95 216,386.4 360,419 C 504,451.6 576,174.4 720,177 C 864,179.6 936,466.8 1080,432 C 1224,397.2 1368,88.8 1440,3L1440 560L0 560z" fill="rgba(179, 179, 179, 1)"></path></g><defs><mask id="SvgjsMask1646"><rect width="1440" height="560" fill="#ffffff"></rect></mask><radialGradient cx="0%" cy="0%" r="1545.06" gradientUnits="userSpaceOnUse" id="SvgjsRadialGradient1647"><stop stop-color="#0e2a47" offset="0"></stop><stop stop-color="rgba(138, 176, 252, 1)" offset="0.8"></stop><stop stop-color="rgba(138, 176, 252, 1)" offset="0.8"></stop><stop stop-color="rgba(138, 176, 252, 1)" offset="0.91"></stop><stop stop-color="rgba(138, 176, 252, 1)" offset="1"></stop></radialGradient></defs></svg>